<svg width="54" height="64" viewBox="0 0 54 64" fill="none" xmlns="http://www.w3.org/2000/svg">
<g clip-path="url(#clip0_779_1039)">
<path d="M24.1587 36.6874H30.6311V34.5268H29.9204C29.9204 35.3533 29.3159 35.9626 28.3925 35.9626H27.3961V32.737H28.4705V32.0215H24.1587V32.737H25.245V35.9626H24.1587V36.6852V36.6874Z" fill="white"/>
<path d="M33.744 36.6898L36.261 36.6922L38.398 32.7393H39.4701V32.0215H36.2469V32.7393H37.1796L35.6211 35.6154L34.0438 32.7393H35.1749V32.0215H30.4995L30.4971 32.7393H31.5691L33.744 36.6898Z" fill="white"/>
<path d="M11.2706 32.0215H6.59513L6.59277 32.7393H7.66246L9.83959 36.6898L12.3568 36.6922L14.4938 32.7393H15.5658V32.0215H12.3426V32.7393H13.273L11.7168 35.6154L10.1395 32.7393H11.2706V32.0215Z" fill="white"/>
<path d="M16.1922 34.3594C16.1922 35.7338 17.2997 36.8271 19.5193 36.8271C21.739 36.8271 22.8346 35.7338 22.8346 34.3594C22.8346 33.0041 21.6729 31.9226 19.5052 31.9226C17.3398 31.9226 16.1899 33.0041 16.1899 34.3594H16.1922ZM20.6622 34.3713C20.648 35.219 20.2962 36.1022 19.4839 36.0879C18.6929 36.0738 18.3457 35.2002 18.36 34.3312C18.3765 33.4315 18.8062 32.6475 19.5477 32.6593C20.2891 32.6735 20.6787 33.4717 20.6646 34.3713H20.6622Z" fill="white"/>
<path d="M40.0884 34.3594C40.0884 35.7338 41.1959 36.8271 43.4155 36.8271C45.6352 36.8271 46.7308 35.7338 46.7308 34.3594C46.7308 33.0041 45.569 31.9226 43.4037 31.9226C41.2384 31.9226 40.0884 33.0041 40.0884 34.3594ZM43.4438 32.6593C44.1829 32.6735 44.5749 33.4717 44.5583 34.3713C44.5418 35.219 44.1924 36.1022 43.3801 36.0879C42.5891 36.0738 42.2419 35.2002 42.256 34.3312C42.2726 33.4315 42.7024 32.6475 43.4438 32.6593Z" fill="white"/>
<path d="M48.6055 19.5162L45.897 22.2247C48.2182 25.8068 49.5689 30.0784 49.5689 34.6665C49.5689 47.3161 39.3136 57.5713 26.6641 57.5713C14.0145 57.5713 3.75923 47.3161 3.75923 34.6665C3.75923 22.0169 14.0145 11.7617 26.6641 11.7617C31.2616 11.7617 35.5427 13.1171 39.1319 15.4501L41.8403 12.7416C37.5333 9.75454 32.3028 8.00244 26.6641 8.00244C11.9388 8.00244 0 19.9389 0 34.6665C0 49.3917 11.9365 61.3306 26.6641 61.3306C41.3893 61.3306 53.3281 49.3941 53.3281 34.6665C53.3281 29.0395 51.5831 23.8186 48.6078 19.5162H48.6055Z" fill="white"/>
<path d="M40.0742 9.05237V9.80091C41.6916 10.677 43.2123 11.7112 44.622 12.873L40.8226 16.6723C42.256 17.7963 43.55 19.0903 44.6764 20.5212L48.471 16.7267C49.6351 18.1387 50.6694 19.6617 51.5455 21.2557H52.2751V9.05237H40.0718H40.0742Z" fill="white"/>
</g>
<defs>
<clipPath id="clip0_779_1039">
<rect width="53.3281" height="63.9938" fill="white" transform="translate(0 0.00317383)"/>
</clipPath>
</defs>
</svg>
